<?xml version="1.0" encoding="utf-8"?>
<!-- Generator: Adobe Illustrator 25.2.1, SVG Export Plug-In . SVG Version: 6.00 Build 0)  -->
<svg version="1.1"
	 id="svg2" 
	 xmlns:cc="http://creativecommons.org/ns#" 
	 xmlns:dc="http://purl.org/dc/elements/1.1/" 
	 xmlns:inkscape="http://www.inkscape.org/namespaces/inkscape" 
	 xmlns:rdf="http://www.w3.org/1999/02/22-rdf-syntax-ns#" 
	 xmlns:sodipodi="http://sodipodi.sourceforge.net/DTD/sodipodi-0.dtd"
	 xmlns="http://www.w3.org/2000/svg" 
	 xmlns:xlink="http://www.w3.org/1999/xlink" 
	 x="0px" 
	 y="0px" 
	 viewBox="0 0 160 186"
	 style="enable-background:new 0 0 160 186;" 
	 xml:space="preserve">
	<sodipodi:namedview  
		bordercolor="#666666" 
		borderopacity="1" 
		gridtolerance="10" 
		guidetolerance="10" id="namedview8" 
		inkscape:current-layer="svg2" 
		inkscape:cx="372.04724" 
		inkscape:cy="-340.18109" 
		inkscape:pageopacity="0" 
		inkscape:pageshadow="2" 
		inkscape:window-height="480" 
		inkscape:window-maximized="0" 
		inkscape:window-width="640" 
		inkscape:window-x="0" 
		inkscape:window-y="0" 
		inkscape:zoom="0.22425739" 
		objecttolerance="10" 
		pagecolor="#ffffff" 
		showgrid="false">
	</sodipodi:namedview>
	<path id="path4" inkscape:connector-curvature="0" d="M30,0L4,26v2l6,10L42,6L32,0H30z M128,0l-10,6l32,32l6-10v-2L130,0H128z M58,4
	c-4,0-6,0-10,4L12,44c-4,4-4,6-4,10v16c0,16,0,16-8,20v16c0,8,0,12,4,18l28,42c4,6,6,6,14,6h18l2,14h28l2-14h18c8,0,10,0,14-6l28-42
	c4-6,4-10,4-18V90c-8-4-8-4-8-20V54c0-4,0-6-4-10L112,8c-4-4-6-4-10-4H58z M51,28h58c21,10,35,32,35,56c0,16-6,30-15.5,41l8,12.8
	l-0.8,4.2l-22,14l-4-0.8L100,140H51c-21-10-35-32-35-56S30,38,51,28z M32,56l-6,6v42l6,6h96l6-6V62l-6-6H32z M128.6,134.6l-18.4,12
	l-0.4,1.4l2.2,3.4l1.4,0.2l18.4-11.8l0.4-1.4L130,135L128.6,134.6z"/>
</svg>
